<svg width="512" height="768" xmlns="http://www.w3.org/2000/svg">
  <path d="M 168,735 L 170,736 L 172,736 L 170,736 Z" fill="none" stroke="black"/>
  <path d="M 33,731 L 35,733 L 37,731 Z" fill="none" stroke="black"/>
  <path d="M 5,729 L 7,728 L 8,730 L 8,728 Z" fill="none" stroke="black"/>
  <path d="M 112,726 L 112,728 L 114,728 Z" fill="none" stroke="black"/>
  <path d="M 10,726 L 11,728 L 13,727 L 11,725 Z" fill="none" stroke="black"/>
  <path d="M 80,724 L 79,726 L 78,728 L 80,726 Z" fill="none" stroke="black"/>
  <path d="M 104,720 L 106,722 L 104,724 Z" fill="none" stroke="black"/>
  <path d="M 17,721 L 19,720 L 21,722 L 19,723 Z" fill="none" stroke="black"/>
  <path d="M 111,720 L 113,719 L 115,721 L 113,722 Z" fill="none" stroke="black"/>
  <path d="M 100,717 L 102,719 L 99,719 Z" fill="none" stroke="black"/>
  <path d="M 82,717 L 84,719 L 80,720 Z" fill="none" stroke="black"/>
  <path d="M 60,715 L 64,718 L 59,717 Z" fill="none" stroke="black"/>
  <path d="M 48,715 L 50,717 L 47,718 L 44,720 L 44,718 L 46,716 Z" fill="none" stroke="black"/>
  <path d="M 55,714 L 55,717 L 51,716 Z" fill="none" stroke="black"/>
  <path d="M 34,714 L 36,717 L 32,716 Z" fill="none" stroke="black"/>
  <path d="M 16,714 L 17,716 L 15,718 L 12,716 Z" fill="none" stroke="black"/>
  <path d="M 43,713 L 44,718 L 43,720 L 40,719 Z" fill="none" stroke="black"/>
  <path d="M 22,713 L 23,718 L 20,717 L 20,715 Z" fill="none" stroke="black"/>
  <path d="M 59,712 L 60,714 L 58,716 L 57,714 Z" fill="none" stroke="black"/>
  <path d="M 47,713 L 51,715 L 49,715 Z" fill="none" stroke="black"/>
  <path d="M 7,712 L 11,713 L 9,715 L 7,716 L 5,715 L 2,716 L 3,713 Z" fill="none" stroke="black"/>
  <path d="M 13,711 L 15,713 L 11,713 Z" fill="none" stroke="black"/>
  <path d="M 48,711 L 47,713 L 44,712 Z" fill="none" stroke="black"/>
  <path d="M 32,711 L 34,710 L 36,712 L 34,713 Z" fill="none" stroke="black"/>
  <path d="M 24,708 L 24,711 L 20,710 Z" fill="none" stroke="black"/>
  <path d="M 211,693 L 213,692 L 215,694 L 213,695 Z" fill="none" stroke="black"/>
  <path d="M 203,680 L 207,683 L 204,682 L 203,684 L 201,682 Z" fill="none" stroke="black"/>
  <path d="M 196,677 L 198,679 L 194,679 Z" fill="none" stroke="black"/>
  <path d="M 189,677 L 191,679 L 188,679 Z" fill="none" stroke="black"/>
  <path d="M 208,676 L 209,679 L 211,678 Z" fill="none" stroke="black"/>
  <path d="M 183,676 L 184,675 L 186,678 L 183,679 L 181,677 Z" fill="none" stroke="black"/>
  <path d="M 209,673 L 211,674 L 213,675 L 211,674 Z" fill="none" stroke="black"/>
  <path d="M 193,673 L 195,673 L 197,673 L 199,675 L 197,673 L 195,673 Z" fill="none" stroke="black"/>
  <path d="M 175,671 L 178,674 L 176,676 L 174,674 Z" fill="none" stroke="black"/>
  <path d="M 192,668 L 194,668 L 196,671 L 195,669 Z" fill="none" stroke="black"/>
  <path d="M 133,667 L 136,666 L 138,667 L 137,670 Z" fill="none" stroke="black"/>
  <path d="M 159,666 L 164,666 L 163,671 L 159,670 L 161,668 Z" fill="none" stroke="black"/>
  <path d="M 151,665 L 153,667 L 151,668 L 150,669 L 147,668 L 149,667 Z" fill="none" stroke="black"/>
  <path d="M 138,663 L 141,663 L 141,665 L 140,667 L 138,665 L 136,664 Z" fill="none" stroke="black"/>
  <path d="M 155,661 L 158,662 L 160,663 L 158,661 Z" fill="none" stroke="black"/>
  <path d="M 142,659 L 144,662 L 146,663 L 148,664 L 145,665 L 143,664 L 140,661 Z" fill="none" stroke="black"/>
  <path d="M 150,658 L 150,661 L 151,663 L 155,663 L 153,663 L 151,661 L 152,659 L 151,661 Z" fill="none" stroke="black"/>
  <path d="M 121,656 L 123,659 L 120,658 Z" fill="none" stroke="black"/>
  <path d="M 119,656 L 118,658 L 115,657 Z" fill="none" stroke="black"/>
  <path d="M 110,655 L 111,657 L 108,656 Z" fill="none" stroke="black"/>
  <path d="M 131,653 L 133,655 L 133,657 L 135,656 L 137,658 L 138,659 L 138,663 L 135,660 L 131,660 L 130,663 L 125,663 L 123,661 L 126,659 L 126,657 L 124,655 L 126,654 L 128,656 L 128,658 L 130,658 L 129,655 Z" fill="none" stroke="black"/>
  <path d="M 121,652 L 125,653 L 123,655 L 119,656 L 119,653 Z" fill="none" stroke="black"/>
  <path d="M 124,652 L 127,651 L 129,653 L 126,654 Z" fill="none" stroke="black"/>
  <path d="M 97,645 L 99,647 L 96,647 Z" fill="none" stroke="black"/>
  <path d="M 112,644 L 114,646 L 115,645 L 115,649 L 116,653 L 111,652 L 113,649 L 112,647 L 110,648 L 111,650 L 109,651 L 107,649 L 107,647 L 109,645 Z" fill="none" stroke="black"/>
  <path d="M 112,640 L 114,642 L 112,644 L 110,642 Z" fill="none" stroke="black"/>
  <path d="M 113,638 L 116,640 L 114,642 L 112,640 Z" fill="none" stroke="black"/>
  <path d="M 124,636 L 122,637 L 124,638 L 125,641 L 123,644 L 126,636 Z" fill="none" stroke="black"/>
  <path d="M 111,634 L 112,637 L 110,639 L 107,638 L 110,636 Z" fill="none" stroke="black"/>
  <path d="M 108,632 L 110,635 L 107,634 Z" fill="none" stroke="black"/>
  <path d="M 130,631 L 132,631 L 134,632 L 132,631 Z" fill="none" stroke="black"/>
  <path d="M 113,631 L 118,631 L 118,634 L 118,636 L 116,638 L 112,636 L 113,633 L 115,632 Z" fill="none" stroke="black"/>
  <path d="M 111,628 L 113,630 L 110,630 Z" fill="none" stroke="black"/>
  <path d="M 127,619 L 127,622 L 123,621 Z" fill="none" stroke="black"/>
  <path d="M 128,612 L 131,616 L 128,618 L 127,615 Z" fill="none" stroke="black"/>
  <path d="M 133,605 L 133,610 L 130,612 L 129,610 Z" fill="none" stroke="black"/>
  <path d="M 139,604 L 139,608 L 137,606 Z" fill="none" stroke="black"/>
  <path d="M 147,605 L 147,606 L 147,608 L 148,606 L 149,604 Z" fill="none" stroke="black"/>
  <path d="M 159,597 L 157,598 L 154,598 L 152,596 Z" fill="none" stroke="black"/>
  <path d="M 160,592 L 162,594 L 159,594 Z" fill="none" stroke="black"/>
  <path d="M 187,591 L 184,592 L 183,594 L 184,592 Z" fill="none" stroke="black"/>
  <path d="M 175,588 L 175,591 L 172,590 Z" fill="none" stroke="black"/>
  <path d="M 48,569 L 50,569 L 52,570 L 50,569 Z" fill="none" stroke="black"/>
  <path d="M 45,564 L 43,575 L 43,568 Z" fill="none" stroke="black"/>
  <path d="M 83,551 L 88,551 L 88,553 L 90,554 L 92,555 L 90,556 L 92,557 L 88,557 L 87,559 L 86,560 L 84,561 L 80,561 L 80,563 L 75,565 L 70,566 L 67,568 L 64,567 L 64,569 L 57,572 L 50,572 L 52,573 L 49,574 L 46,574 L 47,561 L 48,563 L 50,562 L 50,561 L 52,559 L 50,558 L 53,556 L 55,555 L 58,555 L 61,553 L 64,554 L 59,557 L 61,557 L 64,555 L 69,554 L 74,553 L 80,553 Z" fill="none" stroke="black"/>
  <path d="M 362,505 L 362,509 L 364,512 L 364,515 L 365,511 L 366,514 L 368,515 L 368,511 L 370,511 L 371,513 L 373,512 L 371,511 L 366,509 L 373,508 L 376,509 L 375,512 L 376,510 L 378,509 L 375,508 L 383,507 L 374,507 L 367,505 L 364,505 L 363,509 Z" fill="none" stroke="black"/>
  <path d="M 189,445 L 188,454 L 189,448 L 188,447 Z" fill="none" stroke="black"/>
  <path d="M 179,417 L 179,423 L 178,435 L 179,440 L 180,443 L 181,445 L 184,449 L 186,450 L 183,447 L 184,445 L 187,443 L 185,443 L 182,440 L 182,437 L 184,435 L 183,430 L 181,426 L 181,421 Z" fill="none" stroke="black"/>
  <path d="M 43,407 L 41,409 L 45,407 Z" fill="none" stroke="black"/>
  <path d="M 48,403 L 50,403 L 52,403 Z" fill="none" stroke="black"/>
  <path d="M 114,395 L 116,395 L 118,398 L 119,404 L 119,407 L 118,409 L 117,410 L 115,411 L 112,412 L 104,413 L 100,414 L 89,417 L 85,418 L 79,421 L 57,428 L 54,428 L 48,430 L 45,431 L 43,432 L 42,488 L 41,485 L 40,488 L 39,485 L 38,499 L 37,485 L 35,479 L 34,431 L 34,429 L 36,417 L 41,415 L 43,417 L 46,418 L 47,416 L 50,415 L 55,415 L 59,412 L 62,411 L 65,410 L 71,409 L 74,408 L 80,405 L 83,404 L 86,403 L 99,400 L 104,399 L 104,397 L 106,397 L 108,398 L 109,396 Z" fill="none" stroke="black"/>
  <path d="M 124,382 L 123,383 L 121,383 L 123,383 L 124,382 L 127,382 Z" fill="none" stroke="black"/>
  <path d="M 176,366 L 179,367 L 178,382 L 178,391 L 179,393 L 187,407 L 187,425 L 188,437 L 190,439 L 190,434 L 189,428 L 190,424 L 188,419 L 188,412 L 187,407 L 183,399 L 181,392 L 181,366 Z" fill="none" stroke="black"/>
  <path d="M 0,270 L 0,372 L 8,371 L 22,373 L 40,374 L 59,375 L 61,374 L 81,375 L 102,376 L 121,377 L 134,379 L 133,387 L 131,387 L 131,392 L 130,393 L 130,429 L 131,447 L 133,464 L 134,488 L 133,520 L 130,504 L 132,500 L 132,497 L 130,495 L 129,487 L 129,478 L 127,477 L 128,472 L 126,458 L 125,441 L 124,425 L 125,389 L 126,389 L 128,387 L 124,388 L 120,390 L 116,390 L 113,392 L 109,393 L 102,394 L 95,397 L 91,397 L 83,400 L 75,401 L 65,405 L 58,406 L 51,409 L 40,412 L 35,410 L 39,408 L 38,406 L 37,409 L 34,408 L 35,406 L 27,406 L 26,405 L 15,404 L 4,403 L 0,403 L 0,712 L 0,714 L 2,716 L 0,717 L 0,719 L 3,719 L 4,722 L 4,724 L 7,723 L 5,722 L 3,721 L 5,719 L 7,719 L 11,722 L 10,720 L 4,718 L 8,716 L 13,717 L 13,719 L 15,719 L 17,717 L 19,719 L 16,722 L 15,721 L 14,723 L 18,724 L 17,727 L 20,723 L 22,725 L 20,727 L 23,729 L 20,727 L 24,722 L 21,720 L 23,719 L 25,716 L 28,716 L 28,717 L 30,718 L 30,716 L 29,715 L 29,713 L 31,711 L 33,713 L 32,716 L 34,718 L 32,719 L 31,720 L 25,720 L 28,721 L 28,723 L 30,722 L 30,721 L 32,720 L 34,722 L 39,724 L 38,722 L 39,719 L 41,722 L 45,725 L 44,723 L 44,720 L 47,723 L 48,720 L 51,723 L 51,720 L 49,719 L 53,719 L 56,719 L 55,722 L 57,721 L 55,720 L 57,719 L 60,719 L 59,721 L 64,719 L 66,720 L 64,721 L 63,723 L 65,722 L 67,720 L 69,720 L 71,716 L 74,720 L 72,719 L 74,722 L 77,720 L 77,722 L 80,721 L 82,722 L 84,724 L 85,725 L 83,722 L 87,721 L 88,723 L 88,726 L 95,725 L 92,726 L 90,725 L 90,723 L 89,720 L 90,718 L 92,720 L 92,722 L 95,723 L 98,722 L 97,720 L 99,719 L 101,721 L 101,724 L 106,723 L 109,721 L 109,723 L 114,723 L 118,724 L 121,725 L 120,727 L 123,727 L 121,726 L 126,726 L 125,727 L 127,729 L 129,729 L 127,725 L 129,727 L 131,727 L 132,726 L 135,726 L 137,728 L 136,731 L 138,729 L 137,727 L 142,727 L 140,728 L 142,731 L 142,728 L 146,727 L 146,730 L 151,730 L 153,733 L 152,727 L 154,726 L 157,729 L 157,731 L 159,726 L 160,729 L 163,728 L 165,730 L 164,732 L 167,732 L 168,731 L 174,731 L 176,734 L 179,736 L 182,735 L 184,737 L 186,737 L 189,737 L 192,740 L 194,740 L 196,742 L 199,743 L 199,746 L 200,743 L 202,746 L 205,745 L 206,747 L 209,747 L 213,750 L 216,751 L 214,752 L 217,752 L 222,754 L 224,755 L 226,757 L 228,757 L 238,762 L 240,764 L 243,764 L 244,765 L 246,765 L 248,765 L 254,764 L 257,761 L 258,759 L 259,755 L 261,754 L 260,751 L 262,743 L 265,745 L 266,746 L 270,748 L 273,745 L 275,745 L 277,743 L 280,739 L 280,737 L 281,734 L 281,730 L 282,729 L 282,726 L 281,722 L 278,715 L 275,703 L 275,699 L 274,695 L 273,694 L 273,691 L 272,689 L 272,695 L 274,700 L 275,707 L 276,715 L 276,718 L 273,721 L 271,721 L 261,720 L 254,718 L 256,717 L 255,714 L 254,710 L 255,707 L 255,702 L 254,688 L 255,680 L 256,676 L 257,671 L 259,667 L 263,660 L 266,653 L 266,650 L 268,648 L 271,641 L 274,634 L 279,615 L 282,607 L 284,603 L 287,599 L 287,597 L 290,592 L 294,591 L 258,591 L 258,639 L 257,653 L 256,659 L 255,663 L 253,668 L 250,672 L 249,676 L 249,684 L 247,685 L 247,687 L 249,692 L 248,701 L 249,705 L 252,712 L 253,716 L 254,720 L 254,724 L 257,732 L 256,735 L 254,736 L 252,737 L 249,738 L 241,740 L 235,740 L 230,738 L 228,736 L 227,734 L 227,731 L 228,730 L 229,726 L 230,729 L 231,731 L 233,731 L 234,728 L 233,708 L 232,695 L 231,691 L 229,689 L 229,681 L 228,675 L 225,662 L 222,655 L 222,648 L 220,643 L 219,638 L 217,625 L 216,617 L 216,606 L 217,603 L 219,601 L 222,600 L 227,600 L 231,602 L 240,602 L 244,602 L 246,604 L 248,605 L 248,603 L 248,600 L 250,591 L 247,591 L 246,592 L 233,593 L 227,593 L 220,592 L 216,591 L 208,587 L 202,585 L 201,585 L 205,588 L 206,592 L 206,600 L 208,613 L 209,619 L 211,628 L 216,648 L 220,660 L 223,672 L 224,677 L 223,683 L 222,683 L 220,684 L 224,684 L 222,690 L 221,688 L 218,685 L 217,690 L 215,688 L 215,684 L 215,688 L 213,687 L 211,686 L 209,688 L 206,686 L 206,684 L 208,682 L 209,685 L 209,683 L 211,681 L 213,684 L 214,681 L 208,681 L 205,680 L 203,679 L 202,681 L 201,679 L 200,678 L 198,677 L 190,677 L 188,675 L 186,675 L 184,674 L 184,671 L 181,671 L 182,669 L 182,672 L 180,674 L 178,674 L 177,672 L 179,671 L 176,670 L 171,671 L 170,669 L 167,670 L 165,668 L 167,664 L 167,666 L 164,666 L 163,664 L 158,665 L 155,667 L 155,665 L 148,665 L 149,663 L 147,663 L 148,660 L 146,661 L 145,658 L 146,656 L 144,657 L 143,659 L 141,658 L 138,659 L 136,657 L 135,656 L 133,653 L 135,651 L 137,651 L 136,648 L 134,651 L 132,649 L 133,647 L 131,648 L 129,648 L 131,650 L 129,653 L 127,650 L 124,651 L 121,646 L 120,648 L 119,651 L 116,650 L 116,648 L 120,644 L 118,640 L 115,639 L 118,638 L 119,634 L 120,639 L 120,632 L 122,631 L 124,634 L 125,632 L 124,634 L 122,630 L 119,631 L 121,626 L 123,628 L 124,624 L 126,626 L 126,630 L 127,632 L 127,630 L 126,628 L 126,624 L 127,623 L 128,621 L 130,622 L 130,620 L 132,618 L 132,616 L 131,614 L 133,612 L 136,615 L 136,618 L 137,619 L 138,621 L 138,619 L 136,618 L 136,616 L 138,614 L 141,613 L 139,613 L 136,615 L 136,611 L 140,611 L 139,608 L 143,608 L 142,606 L 145,603 L 147,602 L 151,603 L 150,600 L 154,599 L 153,601 L 156,601 L 157,598 L 159,598 L 162,599 L 160,596 L 161,596 L 163,595 L 165,598 L 166,594 L 168,592 L 171,591 L 174,593 L 172,595 L 168,596 L 170,595 L 172,595 L 174,597 L 174,594 L 175,591 L 178,592 L 179,589 L 179,590 L 181,591 L 182,588 L 185,589 L 186,587 L 189,587 L 191,589 L 192,583 L 194,585 L 196,584 L 193,584 L 192,583 L 182,582 L 172,579 L 167,578 L 157,577 L 147,575 L 143,574 L 140,573 L 138,572 L 137,565 L 138,559 L 139,553 L 140,548 L 141,543 L 143,534 L 146,525 L 147,516 L 148,512 L 149,508 L 152,500 L 155,488 L 156,478 L 159,464 L 163,448 L 165,444 L 171,451 L 175,454 L 177,454 L 179,456 L 181,456 L 183,458 L 187,458 L 185,457 L 180,452 L 179,451 L 177,447 L 175,446 L 174,444 L 174,442 L 172,440 L 171,433 L 169,429 L 165,423 L 164,406 L 165,394 L 167,391 L 165,386 L 165,370 L 167,367 L 167,366 L 170,365 L 167,365 L 166,364 L 160,364 L 155,363 L 153,361 L 153,356 L 154,344 L 156,336 L 156,308 L 158,292 L 157,281 L 152,280 L 136,280 L 120,278 L 111,278 L 101,279 L 93,278 L 90,276 L 79,276 L 68,274 L 55,273 L 42,272 L 27,272 L 11,270 Z" fill="none" stroke="black"/>
  <path d="M 236,100 L 237,102 L 240,104 L 242,104 L 239,101 L 242,100 L 243,101 L 245,100 Z" fill="none" stroke="black"/>
  <path d="M 240,93 L 242,95 L 244,96 L 247,95 L 244,93 Z" fill="none" stroke="black"/>
  <path d="M 262,92 L 264,94 L 265,96 L 263,98 L 259,99 L 259,101 L 262,99 L 264,98 L 265,101 L 265,95 Z" fill="none" stroke="black"/>
  <path d="M 259,68 L 257,69 L 256,70 L 256,71 L 254,74 L 259,73 L 262,72 L 264,69 L 266,71 L 268,70 L 270,71 L 267,69 L 265,68 Z" fill="none" stroke="black"/>
  <path d="M 238,16 L 235,17 L 233,18 L 230,20 L 226,23 L 222,27 L 218,32 L 216,35 L 214,39 L 211,45 L 208,54 L 207,58 L 206,62 L 204,71 L 203,77 L 203,81 L 203,85 L 207,92 L 208,95 L 209,99 L 209,106 L 208,111 L 207,114 L 205,119 L 201,128 L 199,132 L 196,138 L 193,141 L 190,143 L 188,144 L 185,143 L 188,147 L 186,148 L 184,148 L 187,149 L 188,150 L 203,150 L 205,149 L 216,144 L 221,140 L 223,142 L 225,135 L 225,132 L 227,133 L 229,132 L 230,129 L 231,126 L 232,128 L 233,129 L 235,134 L 240,144 L 241,142 L 244,140 L 245,139 L 245,138 L 247,136 L 248,133 L 249,130 L 249,127 L 250,126 L 250,124 L 248,123 L 246,123 L 244,122 L 241,120 L 237,117 L 232,113 L 225,106 L 223,103 L 223,101 L 222,96 L 223,94 L 221,89 L 221,79 L 222,77 L 224,75 L 229,75 L 228,73 L 230,72 L 231,74 L 234,74 L 235,72 L 237,75 L 234,71 L 227,71 L 225,73 L 224,68 L 225,65 L 227,63 L 237,63 L 236,61 L 225,59 L 226,55 L 227,52 L 229,47 L 230,45 L 236,39 L 239,37 L 241,36 L 245,35 L 247,33 L 247,30 L 248,28 L 252,27 L 251,35 L 257,38 L 262,43 L 266,48 L 272,57 L 276,61 L 280,66 L 281,68 L 282,70 L 282,78 L 285,81 L 285,83 L 288,80 L 289,83 L 286,89 L 281,93 L 281,96 L 280,99 L 279,102 L 278,104 L 275,108 L 274,110 L 274,115 L 275,126 L 276,120 L 278,122 L 279,125 L 281,128 L 285,132 L 288,134 L 290,135 L 299,138 L 308,140 L 312,140 L 314,141 L 312,140 L 311,138 L 306,128 L 302,119 L 300,114 L 300,110 L 298,106 L 297,101 L 298,81 L 298,76 L 297,70 L 296,66 L 294,59 L 293,56 L 289,45 L 285,37 L 283,34 L 280,30 L 273,23 L 270,21 L 264,18 L 261,17 L 257,17 L 256,16 L 253,16 L 250,18 L 248,18 L 245,16 Z" fill="none" stroke="black"/>
  <path d="M 460,0 L 460,87 L 459,88 L 459,223 L 458,290 L 456,328 L 456,414 L 454,422 L 455,432 L 454,440 L 456,441 L 456,443 L 459,444 L 459,446 L 458,449 L 460,455 L 460,457 L 453,464 L 449,467 L 448,467 L 447,469 L 451,470 L 452,468 L 454,468 L 455,469 L 459,469 L 464,467 L 467,469 L 469,467 L 471,467 L 472,469 L 477,467 L 481,468 L 487,466 L 493,467 L 497,466 L 504,464 L 511,464 L 511,451 L 509,450 L 509,216 L 509,451 L 507,453 L 504,452 L 503,405 L 502,264 L 502,261 L 503,253 L 503,241 L 503,238 L 503,224 L 501,91 L 502,78 L 501,0 Z" fill="none" stroke="black"/>
</svg>